<?xml version="1.0" encoding="UTF-8"?>
<svg width="1200pt" height="1200pt" version="1.1" viewBox="0 0 1200 1200" xmlns="http://www.w3.org/2000/svg">
 <g fill="#fff">
  <path d="m363.84 387.46h297.23l87.547-87.543c9.2227-9.2227 24.168-9.2227 33.395 0l118.08 118.08c6.7578 6.7539 8.7852 16.902 5.1172 25.734-3.6445 8.832-12.27 14.574-21.816 14.574h-47.23v377.86c0 39.066-31.781 70.848-70.848 70.848h-401.47c-39.066 0-70.848-31.781-70.848-70.848l-0.003907-377.86c0-39.066 31.781-70.848 70.848-70.848zm283.39 70.848c-9.5469 0-18.172-5.7422-21.816-14.574-1.2148-2.9336-1.5859-5.9922-1.5859-9.043h-259.99c-13.031 0-23.617 10.586-23.617 23.617v133.84l119.3 159.05 122.55-142.94c4.2656-5.0039 10.449-7.9805 17.02-8.2344 6.7344-0.60156 12.961 2.2383 17.598 6.8945l77.766 77.77v-226.38zm141.7 377.86v-401.48c0-13.051 10.562-23.617 23.617-23.617l13.836 0.003907-61.066-61.07-61.07 61.07h13.836c13.051 0 23.617 10.562 23.617 23.617v377.86c0 17.285-5 33.281-13.137 47.23h36.754c13.031 0 23.613-10.582 23.613-23.613zm-425.09 23.613h283.39c26.035 0 47.23-21.195 47.23-47.23v-61.07l-93.129-93.129-125.12 145.94c-4.4688 5.2578-11.039 8.2578-17.914 8.2578-0.25391 0-0.50781 0-0.76172-0.023437-7.1719-0.23047-13.836-3.6914-18.129-9.4336l-99.188-132.26v165.33c0 13.031 10.582 23.613 23.613 23.613z"/>
  <path d="m458.3 623.62c-39.066 0-70.848-31.781-70.848-70.848 0-39.066 31.781-70.848 70.848-70.848 39.066 0 70.848 31.781 70.848 70.848 0 39.066-31.777 70.848-70.848 70.848zm0-94.465c-13.031 0-23.617 10.586-23.617 23.617s10.586 23.617 23.617 23.617 23.617-10.586 23.617-23.617-10.586-23.617-23.617-23.617z"/>
 </g>
</svg>
