<?xml version="1.0" encoding="utf-8"?>
<svg width="300px" height="300px" xmlns="http://www.w3.org/2000/svg" xmlns:bx="https://boxy-svg.com">
  <rect width="300" height="300" style="stroke: rgb(245, 247, 253); fill: rgb(245, 247, 253);"/>
  <g>
    <g transform="matrix(0.355174, 0, 0, 0.301604, 7.138355, 16.292763)" style="">
      <title>Layer 1</title>
      <line stroke-width="15" id="svg_7" y2="70.66667" x2="191.83331" y1="70.66667" x1="114.8333" style="stroke: rgb(0, 0, 0);"/>
      <path id="svg_10" d="m116.33338,77.83332c-3.22282,0 -5.83331,-3.20717 -5.83331,-7.16664c0,-3.95947 2.61049,-7.16664 5.83331,-7.16664c3.22282,0 5.83331,3.20717 5.83331,7.16664c0,3.95947 -2.61049,7.16664 -5.83331,7.16664z" opacity="undefined" style="stroke: rgb(0, 0, 0);"/>
      <ellipse transform="rotate(1.87383 190.344 70.6725)" ry="6.99972" rx="6.86049" id="svg_16" cy="70.67248" cx="190.34414" style="stroke: rgb(0, 0, 0);"/>
      <ellipse id="svg_25" cy="51.99231" cx="120.99081" stroke-width="10" style="stroke: rgb(0, 0, 0);"/>
      <g id="svg_33">
        <line id="svg_17" y2="72.66671" x2="262.65332" y1="22.99283" x1="204.33368" stroke-width="15" style="stroke: rgb(0, 0, 0);"/>
        <line id="svg_18" y2="123.00004" x2="204.98792" y1="73.00004" x1="263.31998" stroke-width="15" style="stroke: rgb(0, 0, 0);"/>
        <ellipse ry="6.33337" rx="6.49988" id="svg_29" cy="72.99163" cx="263.81997" style="stroke: rgb(0, 0, 0);"/>
        <ellipse transform="rotate(34.1193 205.257 23.6547)" ry="6.83418" rx="9.23271" id="svg_31" cy="23.65474" cx="205.25665" style="stroke: rgb(0, 0, 0);"/>
        <ellipse transform="rotate(143.528 205.59 122.654)" ry="6.83418" rx="9.23271" id="svg_32" cy="122.65421" cx="205.58999" style="stroke: rgb(0, 0, 0);"/>
      </g>
      <g transform="rotate(180 77.7173 70.2284)" id="svg_39">
        <line id="svg_34" y2="69.66672" x2="108.3208" y1="19.99284" x1="50.00117" stroke-width="15" style="stroke: rgb(0, 0, 0);"/>
        <line id="svg_35" y2="120.00005" x2="50.65541" y1="70.00005" x1="108.98747" stroke-width="15" style="stroke: rgb(0, 0, 0);"/>
        <ellipse ry="6.33337" rx="6.49988" id="svg_36" cy="69.99165" cx="109.48746" style="stroke: rgb(0, 0, 0);"/>
        <ellipse transform="rotate(34.1193 50.9242 20.6548)" ry="6.83418" rx="9.23271" id="svg_37" cy="20.65476" cx="50.92414" style="stroke: rgb(0, 0, 0);"/>
        <ellipse transform="rotate(143.528 51.2572 119.654)" ry="6.83418" rx="9.23271" id="svg_38" cy="119.65423" cx="51.25747" style="stroke: rgb(0, 0, 0);"/>
      </g>
    </g>
    <g transform="matrix(0.355174, 0, 0, 0.296242, 7.138355, 247.047989)" style="">
      <title>Layer 1</title>
      <line stroke-width="15" id="line-1" y2="70.666" x2="221.915" y1="67.571" x1="110.744" style="stroke: rgb(0, 0, 0);" transform="matrix(-0.438434, 0.988127, -0.817481, -0.438434, 285.217215, -60.786798)" bx:origin="0.442 0"/>
      <path id="path-1" d="M 130.353 133.325 C 127.131 133.325 124.52 130.118 124.52 126.159 C 124.52 122.199 127.131 118.992 130.353 118.992 C 133.576 118.992 136.187 122.199 136.187 126.159 C 136.187 130.118 133.576 133.325 130.353 133.325 Z" opacity="undefined" style="stroke: rgb(0, 0, 0);"/>
      <ellipse transform="matrix(0.999465, 0.032699, -0.032699, 0.999465, -6.467155, -58.595115)" ry="7.015" rx="6.393" id="ellipse-1" cy="70.672" cx="190.344" style="stroke: rgb(0, 0, 0);"/>
      <ellipse id="ellipse-2" cy="51.99231" cx="120.99081" stroke-width="10" style="stroke: rgb(0, 0, 0);"/>
      <g id="g-1" transform="matrix(1, 0, 0, 1, 9.902407, 0)">
        <line id="line-2" y2="72.66671" x2="262.65332" y1="22.99283" x1="204.33368" stroke-width="15" style="stroke: rgb(0, 0, 0);"/>
        <line id="line-3" y2="123.00004" x2="204.98792" y1="73.00004" x1="263.31998" stroke-width="15" style="stroke: rgb(0, 0, 0);"/>
        <ellipse ry="6.33337" rx="6.49988" id="ellipse-3" cy="72.99163" cx="263.81997" style="stroke: rgb(0, 0, 0);"/>
        <ellipse transform="rotate(34.1193 205.257 23.6547)" ry="6.83418" rx="9.23271" id="ellipse-4" cy="23.65474" cx="205.25665" style="stroke: rgb(0, 0, 0);"/>
        <ellipse transform="rotate(143.528 205.59 122.654)" ry="6.83418" rx="9.23271" id="ellipse-5" cy="122.65421" cx="205.58999" style="stroke: rgb(0, 0, 0);"/>
      </g>
      <g transform="rotate(180 77.7173 70.2284)" id="g-2">
        <line id="line-4" y2="69.66672" x2="108.3208" y1="19.99284" x1="50.00117" stroke-width="15" style="stroke: rgb(0, 0, 0);"/>
        <line id="line-5" y2="120.00005" x2="50.65541" y1="70.00005" x1="108.98747" stroke-width="15" style="stroke: rgb(0, 0, 0);"/>
        <ellipse ry="6.33337" rx="6.49988" id="ellipse-6" cy="69.99165" cx="109.48746" style="stroke: rgb(0, 0, 0);"/>
        <ellipse transform="rotate(34.1193 50.9242 20.6548)" ry="6.83418" rx="9.23271" id="ellipse-7" cy="20.65476" cx="50.92414" style="stroke: rgb(0, 0, 0);"/>
        <ellipse transform="rotate(143.528 51.2572 119.654)" ry="6.83418" rx="9.23271" id="ellipse-8" cy="119.65423" cx="51.25747" style="stroke: rgb(0, 0, 0);"/>
      </g>
    </g>
    <g transform="matrix(1, 0, 0, 1, -38.851002, 41.637001)">
      <rect x="60" y="35" width="175" height="5" style="paint-order: fill; stroke-width: 0px; stroke: rgb(0, 0, 0);"/>
      <rect x="60" y="65" width="265" height="5" style="paint-order: fill; stroke-width: 0px; stroke: rgb(0, 0, 0);"/>
      <rect x="60" y="95" width="265" height="5" style="paint-order: fill; stroke-width: 0px; stroke: rgb(0, 0, 0);"/>
      <rect x="60" y="125" width="115" height="5" style="paint-order: fill; stroke-width: 0px; stroke: rgb(0, 0, 0);"/>
      <rect x="60" y="155" width="175" height="5" style="paint-order: fill; stroke-width: 0px; stroke: rgb(0, 0, 0);"/>
      <rect x="60" y="185" width="85" height="5" style="paint-order: fill; stroke-width: 0px; stroke: rgb(0, 0, 0);"/>
    </g>
  </g>
</svg>